{
   "accessors" : [
      {
         "bufferView" : 2,
         "byteOffset" : 0,
         "componentType" : 5126,
         "count" : 144,
         "max" : [ 1, 0.5542271137237549, 0.06575388461351395, 1 ],
         "min" : [ 0.2631747424602509, 0.3203815817832947, 0, 1 ],
         "name" : "accessor_color_m0-PolyPaper21_-548388",
         "type" : "VEC4"
      },
      {
         "bufferView" : 2,
         "byteOffset" : 2304,
         "componentType" : 5126,
         "count" : 168,
         "max" : [ 1, 1, 1, 1 ],
         "min" : [ 1, 1, 1, 1 ],
         "name" : "accessor_color_m1-PolyGlass24_-548394",
         "type" : "VEC4"
      },
      {
         "bufferView" : 0,
         "byteOffset" : 0,
         "componentType" : 5123,
         "count" : 264,
         "max" : [ 143 ],
         "min" : [ 0 ],
         "name" : "accessor_indices_0_m0-PolyPaper21_-548388",
         "type" : "SCALAR"
      },
      {
         "bufferView" : 0,
         "byteOffset" : 528,
         "componentType" : 5123,
         "count" : 276,
         "max" : [ 167 ],
         "min" : [ 0 ],
         "name" : "accessor_indices_0_m1-PolyGlass24_-548394",
         "type" : "SCALAR"
      },
      {
         "bufferView" : 1,
         "byteOffset" : 1728,
         "componentType" : 5126,
         "count" : 144,
         "max" : [ 0.965926, 1, 0.9659266 ],
         "min" : [ -0.965926, -1, -0.965926 ],
         "name" : "accessor_normal_m0-PolyPaper21_-548388",
         "type" : "VEC3"
      },
      {
         "bufferView" : 1,
         "byteOffset" : 5472,
         "componentType" : 5126,
         "count" : 168,
         "max" : [ 0.965926, 1, 0.965926 ],
         "min" : [ -0.9659257, -1, -0.965926 ],
         "name" : "accessor_normal_m1-PolyGlass24_-548394",
         "type" : "VEC3"
      },
      {
         "bufferView" : 1,
         "byteOffset" : 0,
         "componentType" : 5126,
         "count" : 144,
         "max" : [ -0.7736081, 2.128345, 1.267154 ],
         "min" : [ -1.183608, 0.8468613, 0.8571543 ],
         "name" : "accessor_position_m0-PolyPaper21_-548388",
         "type" : "VEC3"
      },
      {
         "bufferView" : 1,
         "byteOffset" : 3456,
         "componentType" : 5126,
         "count" : 168,
         "max" : [ -0.7735859, 2.02833, 1.267134 ],
         "min" : [ -1.183586, 0.818329, 0.8571337 ],
         "name" : "accessor_position_m1-PolyGlass24_-548394",
         "type" : "VEC3"
      }
   ],
   "asset" : {
      "copyright" : "Unknown",
      "generator" : "glTF 1-to-2 Upgrader for Google Blocks",
      "version" : "2.0"
   },
   "bufferViews" : [
      {
         "buffer" : 0,
         "byteLength" : 1080,
         "byteOffset" : 0,
         "name" : "ushortBufferView",
         "target" : 34963
      },
      {
         "buffer" : 0,
         "byteLength" : 7488,
         "byteOffset" : 1080,
         "byteStride" : 12,
         "name" : "vec3BufferView",
         "target" : 34962
      },
      {
         "buffer" : 0,
         "byteLength" : 4992,
         "byteOffset" : 8568,
         "byteStride" : 16,
         "name" : "vec4BufferView",
         "target" : 34962
      }
   ],
   "buffers" : [
      {
         "byteLength" : 13560,
         "name" : "model",
         "uri" : "model.bin"
      }
   ],
   "materials" : [
      {
         "alphaMode" : "OPAQUE",
         "doubleSided" : false,
         "name" : "BlocksPaper",
         "pbrMetallicRoughness" : {
            "baseColorFactor" : [ 1, 1, 1, 1 ],
            "metallicFactor" : 0,
            "roughnessFactor" : 0.6
         }
      },
      {
         "alphaMode" : "BLEND",
         "doubleSided" : false,
         "name" : "BlocksGlass",
         "pbrMetallicRoughness" : {
            "baseColorFactor" : [ 0.2, 0.2, 1, 0.3 ],
            "metallicFactor" : 1,
            "roughnessFactor" : 0.4
         }
      },
      {
         "alphaMode" : "OPAQUE",
         "doubleSided" : true,
         "name" : "BlocksGem",
         "pbrMetallicRoughness" : {
            "baseColorFactor" : [ 1, 0.4, 1, 1 ],
            "metallicFactor" : 0,
            "roughnessFactor" : 0.1
         }
      }
   ],
   "meshes" : [
      {
         "name" : "mesh_m0-PolyPaper21_-548388",
         "primitives" : [
            {
               "attributes" : {
                  "COLOR_0" : 0,
                  "NORMAL" : 4,
                  "POSITION" : 6
               },
               "indices" : 2,
               "material" : 0,
               "mode" : 4
            }
         ]
      },
      {
         "name" : "mesh_m1-PolyGlass24_-548394",
         "primitives" : [
            {
               "attributes" : {
                  "COLOR_0" : 1,
                  "NORMAL" : 5,
                  "POSITION" : 7
               },
               "indices" : 3,
               "material" : 1,
               "mode" : 4
            }
         ]
      }
   ],
   "nodes" : [
      {
         "mesh" : 1,
         "name" : "node_MeshObject-1463963648-PolyGlass24"
      },
      {
         "mesh" : 0,
         "name" : "node_MeshObject-995241984-PolyPaper21"
      }
   ],
   "scene" : 0,
   "scenes" : [
      {
         "extras" : {},
         "name" : "defaultScene",
         "nodes" : [ 1, 0 ]
      }
   ]
}
